<svg xmlns="http://www.w3.org/2000/svg" width="32" height="32" viewBox="0 0 32 32" fill="none" aria-hidden="true">
  <rect width="32" height="32" rx="8" fill="#09090b"/>
  <path d="M11 9.5c0-1.1.9-2 2-2h6a2 2 0 012 2v1.2a6 6 0 00-4.5 5.8V20a1.5 1.5 0 001.5 1.5H19a1.5 1.5 0 001.5-1.5v-.3a5 5 0 013-4.6V9.5a2 2 0 00-2-2h-6a2 2 0 00-2 2v.8" stroke="#e04a3a" stroke-width="1.6" stroke-linecap="round"/>
  <path d="M10 22.5a8 8 0 0112 0" stroke="#e04a3a" stroke-width="1.6" stroke-linecap="round"/>
  <path d="M16 14.5l2.8 2.8L22 12" stroke="#2dd4a8" stroke-width="1.8" stroke-linecap="round" stroke-linejoin="round"/>
</svg>
