<svg xmlns="http://www.w3.org/2000/svg" width="1200" height="630" viewBox="0 0 1200 630" fill="none">
  <rect width="1200" height="630" fill="#f5f1ec"/>
  <circle cx="980" cy="120" r="220" fill="#3ecf8e" opacity="0.08"/>
  <circle cx="180" cy="520" r="160" fill="#ff5600" opacity="0.06"/>
  <rect x="80" y="180" width="48" height="48" rx="14" fill="#111111"/>
  <path d="M92 198c0-1.1.9-2 2-2h12a2 2 0 012 2v1a4 4 0 00-3 3.8V216a1 1 0 001 1h1a1 1 0 001-1v-.2a3.5 3.5 0 002-3.2V198a2 2 0 00-2-2h-12a2 2 0 00-2 2v.5" stroke="#fafafa" stroke-width="1.5" stroke-linecap="round"/>
  <path d="M90 228a5 5 0 0110 0" stroke="#fafafa" stroke-width="1.5" stroke-linecap="round"/>
  <path d="M104 210l2.5 2.5L112 207" stroke="#3ecf8e" stroke-width="2" stroke-linecap="round" stroke-linejoin="round"/>
  <text x="150" y="218" font-family="Georgia, serif" font-size="42" fill="#111111">Clinic Lead Recovery</text>
  <text x="150" y="268" font-family="system-ui, sans-serif" font-size="24" fill="#52525b">Missed calls ? callbacks ? 8 AM owner digest</text>
  <rect x="80" y="320" width="1040" height="240" rx="16" fill="#ffffff" stroke="#e4e0d8" stroke-width="1"/>
  <rect x="80" y="320" width="1040" height="44" rx="16" fill="#fafafa"/>
  <rect x="80" y="348" width="1040" height="16" fill="#fafafa"/>
  <circle cx="108" cy="342" r="6" fill="#ef4444" opacity="0.7"/>
  <circle cx="128" cy="342" r="6" fill="#f5a623" opacity="0.7"/>
  <circle cx="148" cy="342" r="6" fill="#3ecf8e" opacity="0.7"/>
  <rect x="200" y="332" width="280" height="20" rx="10" fill="#fff" stroke="#e4e0d8"/>
  <rect x="120" y="400" width="200" height="120" rx="10" fill="#18181b"/>
  <rect x="340" y="400" width="200" height="120" rx="10" fill="#18181b"/>
  <rect x="560" y="400" width="200" height="120" rx="10" fill="#18181b"/>
  <rect x="820" y="380" width="180" height="160" rx="24" fill="#111111" stroke="#27272a" stroke-width="2"/>
  <rect x="836" y="420" width="148" height="8" rx="4" fill="#3ecf8e" opacity="0.9"/>
</svg>
