<svg xmlns="http://www.w3.org/2000/svg" width="1200" height="630" viewBox="0 0 1200 630" fill="none">
  <rect width="1200" height="630" fill="#09090b"/>
  <path d="M0 420h1200" stroke="#27272a" stroke-width="1"/>
  <path d="M0 210h1200M600 0v630" stroke="#27272a" stroke-width="1" opacity="0.35"/>
  <circle cx="900" cy="120" r="200" fill="#e04a3a" opacity="0.08"/>
  <circle cx="200" cy="500" r="160" fill="#2dd4a8" opacity="0.06"/>
  <rect x="80" y="80" width="64" height="64" rx="14" fill="#141416" stroke="#27272a"/>
  <path d="M99 108a3 3 0 013-3h18a3 3 0 013 3v2a9 9 0 00-6.5 8.7V128a2 2 0 002 2h2.5a2 2 0 002-2v-.5a7.5 7.5 0 004.5-6.9V108a3 3 0 00-3-3h-18a3 3 0 00-3 3v1.2" stroke="#e04a3a" stroke-width="2"/>
  <path d="M96 148a12 12 0 0124 0" stroke="#e04a3a" stroke-width="2"/>
  <path d="M112 122l3.5 3.5L124 115" stroke="#2dd4a8" stroke-width="2.2" stroke-linecap="round"/>
  <text x="170" y="118" fill="#fafafa" font-family="Georgia, serif" font-size="52" font-weight="400">Clinic Lead Recovery</text>
  <text x="170" y="175" fill="#a1a1aa" font-family="system-ui, sans-serif" font-size="28">Missed calls + WhatsApp · Owner digest at 8 AM</text>
  <text x="170" y="480" fill="#71717a" font-family="monospace" font-size="22">Hyderabad aesthetic clinics · Free 7-day audit</text>
</svg>
